# xmcd
#
# Track frame offsets:
#	150
#	18214
#	34695
#	47330
#	61155
#	78628
#	98559
#	119460
#	138408
#	152351
#
# Disc length: 2327 seconds
# Revision: 0
# Processed by: cddbd v1.5.2PL0 Copyright (c) Steve Scherf et al.
# Submitted via: dBpowerAMP V12.0
#
DISCID=6d09150a
DTITLE=Midnight River Choir - Fresh Air
DYEAR=2014
DGENRE=Alternative Country
TTITLE0=Circles
TTITLE1=Funny Thing
TTITLE2=Shine
TTITLE3=Moon Pies
TTITLE4=When You Lie
TTITLE5=Ashes to Ecstasy
TTITLE6=Tombstone Lullaby
TTITLE7=Unblue
TTITLE8=Fly By
TTITLE9=I Need a Miracle
EXTD=
EXTT0=
EXTT1=
EXTT2=
EXTT3=
EXTT4=
EXTT5=
EXTT6=
EXTT7=
EXTT8=
EXTT9=
PLAYORDER=
